<mxfile host="app.diagrams.net" modified="2023-12-10T09:21:51.374Z" agent="Mozilla/5.0 (Macintosh; Intel Mac OS X 10_15_7) AppleWebKit/537.36 (KHTML, like Gecko) Chrome/119.0.0.0 Safari/537.36" version="22.1.7" etag="nL_0RnYF7CsaOsOSMHx5" type="github">
  <diagram name="Page-1" id="iE-lFRDJ4aOg8hGZFH1O">
    <mxGraphModel>
      <root>
        <mxCell id="0" />
        <mxCell id="1" parent="0" />
      </root>
    </mxGraphModel>
  </diagram>
</mxfile>
